<?xml version="1.0" encoding="us-ascii" standalone="no"?><svg xmlns="http://www.w3.org/2000/svg" xmlns:xlink="http://www.w3.org/1999/xlink" contentStyleType="text/css" height="928px" preserveAspectRatio="none" style="width:2546px;height:928px;background:#FFFFFF;" version="1.1" viewBox="0 0 2546 928" width="2546px" zoomAndPan="magnify"><defs/><g><!--cluster Proxy--><g id="cluster_Proxy"><rect fill="none" height="232" rx="2.5" ry="2.5" style="stroke:#181818;stroke-width:1.0;" width="1152.5" x="720.5" y="376"/><text fill="#000000" font-family="Helvetica" font-size="14" font-weight="bold" lengthAdjust="spacing" textLength="201" x="1196.25" y="390.9951">callosum FastAPI process</text></g><!--cluster Backends--><g id="cluster_Backends"><rect fill="none" height="281" rx="2.5" ry="2.5" style="stroke:#181818;stroke-width:1.0;" width="222" x="2060" y="390"/><text fill="#000000" font-family="Helvetica" font-size="14" font-weight="bold" lengthAdjust="spacing" textLength="76" x="2133" y="404.9951">Backends</text></g><!--cluster AutoDev--><g id="cluster_AutoDev"><rect fill="none" height="123" rx="2.5" ry="2.5" style="stroke:#181818;stroke-width:1.0;" width="2251.5" x="7" y="62"/><text fill="#000000" font-family="Helvetica" font-size="14" font-weight="bold" lengthAdjust="spacing" textLength="196" x="1034.75" y="76.9951">scheduled auto-dev loop</text></g><!--entity API--><g id="elem_API"><rect fill="#FFE4B5" height="68.8906" rx="2.5" ry="2.5" style="stroke:#444444;stroke-width:0.5;" width="166" x="745" y="451.5"/><text fill="#000000" font-family="Helvetica" font-size="14" lengthAdjust="spacing" textLength="76" x="755" y="474.4951">API surface</text><text fill="#000000" font-family="Helvetica" font-size="14" lengthAdjust="spacing" textLength="100" x="755" y="490.792">/v1/responses</text><text fill="#000000" font-family="Helvetica" font-size="14" lengthAdjust="spacing" textLength="146" x="755" y="507.0889">/v1/chat/completions</text></g><!--entity Router--><g id="elem_Router"><rect fill="#FFE4B5" height="68.8906" rx="2.5" ry="2.5" style="stroke:#444444;stroke-width:0.5;" width="198" x="1224.5" y="411.5"/><text fill="#000000" font-family="Helvetica" font-size="14" lengthAdjust="spacing" textLength="47" x="1234.5" y="434.4951">Router</text><text fill="#000000" font-family="Helvetica" font-size="14" lengthAdjust="spacing" textLength="178" x="1234.5" y="450.792">features -&gt; capability filter</text><text fill="#000000" font-family="Helvetica" font-size="14" lengthAdjust="spacing" textLength="164" x="1234.5" y="467.0889">-&gt; predictor -&gt; selector</text></g><!--entity Transforms--><g id="elem_Transforms"><rect fill="#FFE4B5" height="52.5938" rx="2.5" ry="2.5" style="stroke:#444444;stroke-width:0.5;" width="191" x="1666" y="416.5"/><text fill="#000000" font-family="Helvetica" font-size="14" lengthAdjust="spacing" textLength="125" x="1676" y="439.4951">Transform registry</text><text fill="#000000" font-family="Helvetica" font-size="14" lengthAdjust="spacing" textLength="171" x="1676" y="455.792">src/callosum/transforms/</text></g><!--entity Dispatch--><g id="elem_Dispatch"><rect fill="#FFE4B5" height="36.2969" rx="2.5" ry="2.5" style="stroke:#444444;stroke-width:0.5;" width="144" x="1689.5" y="522"/><text fill="#000000" font-family="Helvetica" font-size="14" lengthAdjust="spacing" textLength="124" x="1699.5" y="544.9951">Backend dispatch</text></g><!--entity Harness--><g id="elem_Harness"><rect fill="#FFE4B5" height="52.5938" rx="2.5" ry="2.5" style="stroke:#444444;stroke-width:0.5;" width="145" x="1251" y="515.5"/><text fill="#000000" font-family="Helvetica" font-size="14" lengthAdjust="spacing" textLength="125" x="1261" y="538.4951">Capability harness</text><text fill="#000000" font-family="Helvetica" font-size="14" lengthAdjust="spacing" textLength="76" x="1261" y="554.792">6h sweeps</text></g><!--entity Canary--><g id="elem_Canary"><rect fill="#FFE4B5" height="36.2969" rx="2.5" ry="2.5" style="stroke:#444444;stroke-width:0.5;" width="183" x="736.5" y="556"/><text fill="#000000" font-family="Helvetica" font-size="14" lengthAdjust="spacing" textLength="163" x="746.5" y="578.9951">Canary + failure registry</text></g><!--entity Codex--><g id="elem_Codex"><rect fill="#FFE4B5" height="52.5938" rx="2.5" ry="2.5" style="stroke:#444444;stroke-width:0.5;" width="143" x="2099.5" y="601.5"/><text fill="#000000" font-family="Helvetica" font-size="14" lengthAdjust="spacing" textLength="123" x="2109.5" y="624.4951">Codex auth vaults</text><text fill="#000000" font-family="Helvetica" font-size="14" lengthAdjust="spacing" textLength="111" x="2109.5" y="640.792">remote Plus/Pro</text></g><!--entity Local--><g id="elem_Local"><rect fill="#FFE4B5" height="52.5938" rx="2.5" ry="2.5" style="stroke:#444444;stroke-width:0.5;" width="167" x="2087.5" y="425.5"/><text fill="#000000" font-family="Helvetica" font-size="14" lengthAdjust="spacing" textLength="147" x="2097.5" y="448.4951">LocalLlmHubBackend</text><text fill="#000000" font-family="Helvetica" font-size="14" lengthAdjust="spacing" textLength="140" x="2097.5" y="464.792">preferred local lanes</text></g><!--entity LiteLLM--><g id="elem_LiteLLM"><rect fill="#FFE4B5" height="52.5938" rx="2.5" ry="2.5" style="stroke:#444444;stroke-width:0.5;" width="190" x="2076" y="513.5"/><text fill="#000000" font-family="Helvetica" font-size="14" lengthAdjust="spacing" textLength="170" x="2086" y="536.4951">LiteLLMGatewayBackend</text><text fill="#000000" font-family="Helvetica" font-size="14" lengthAdjust="spacing" textLength="147" x="2086" y="552.792">fallback local gateway</text></g><!--entity Timer--><g id="elem_Timer"><rect fill="#FFE4B5" height="52.5938" rx="2.5" ry="2.5" style="stroke:#444444;stroke-width:0.5;" width="185" x="23" y="107.5"/><text fill="#000000" font-family="Helvetica" font-size="14" lengthAdjust="spacing" textLength="98" x="33" y="130.4951">systemd timer</text><text fill="#000000" font-family="Helvetica" font-size="14" lengthAdjust="spacing" textLength="165" x="33" y="146.792">callosum-dev-loop.timer</text></g><!--entity Perception--><g id="elem_Perception"><rect fill="#FFE4B5" height="68.8906" rx="2.5" ry="2.5" style="stroke:#444444;stroke-width:0.5;" width="204" x="325" y="99.5"/><text fill="#000000" font-family="Helvetica" font-size="14" lengthAdjust="spacing" textLength="144" x="335" y="122.4951">Perception snapshot</text><text fill="#000000" font-family="Helvetica" font-size="14" lengthAdjust="spacing" textLength="184" x="335" y="138.792">profiles + canary + failures</text><text fill="#000000" font-family="Helvetica" font-size="14" lengthAdjust="spacing" textLength="145" x="335" y="155.0889">+ transform commits</text></g><!--entity Gate--><g id="elem_Gate"><rect fill="#FFE4B5" height="68.8906" rx="2.5" ry="2.5" style="stroke:#444444;stroke-width:0.5;" width="242" x="707" y="99.5"/><text fill="#000000" font-family="Helvetica" font-size="14" lengthAdjust="spacing" textLength="92" x="717" y="122.4951">Pre-filter gate</text><text fill="#000000" font-family="Helvetica" font-size="14" lengthAdjust="spacing" textLength="222" x="717" y="138.792">adapter hint / canary divergence</text><text fill="#000000" font-family="Helvetica" font-size="14" lengthAdjust="spacing" textLength="177" x="717" y="155.0889">/ recent transform failures</text></g><!--entity Agent--><g id="elem_Agent"><rect fill="#FFE4B5" height="52.5938" rx="2.5" ry="2.5" style="stroke:#444444;stroke-width:0.5;" width="231" x="1208" y="107.5"/><text fill="#000000" font-family="Helvetica" font-size="14" lengthAdjust="spacing" textLength="150" x="1218" y="130.4951">External coding agent</text><text fill="#000000" font-family="Helvetica" font-size="14" lengthAdjust="spacing" textLength="211" x="1218" y="146.792">CALLOSUM_DEV_LOOP_AGENT</text></g><!--entity Verify--><g id="elem_Verify"><rect fill="#FFE4B5" height="68.8906" rx="2.5" ry="2.5" style="stroke:#444444;stroke-width:0.5;" width="146" x="1688.5" y="99.5"/><text fill="#000000" font-family="Helvetica" font-size="14" lengthAdjust="spacing" textLength="126" x="1698.5" y="122.4951">Scope + test gate</text><text fill="#000000" font-family="Helvetica" font-size="14" lengthAdjust="spacing" textLength="106" x="1698.5" y="138.792">transforms only</text><text fill="#000000" font-family="Helvetica" font-size="14" lengthAdjust="spacing" textLength="85" x="1698.5" y="155.0889">ruff + pytest</text></g><!--entity Branches--><g id="elem_Branches"><path d="M2102,97.5 L2143,97.5 A3.75,3.75 0 0 1 2145.5,100 L2152.5,118.5 L2240,118.5 A2.5,2.5 0 0 1 2242.5,121 L2242.5,165.5938 A2.5,2.5 0 0 1 2240,168.0938 L2102,168.0938 A2.5,2.5 0 0 1 2099.5,165.5938 L2099.5,100 A2.5,2.5 0 0 1 2102,97.5 " fill="#EEF7E6" style="stroke:#444444;stroke-width:0.5;"/><line style="stroke:#444444;stroke-width:0.5;" x1="2099.5" x2="2152.5" y1="118.5" y2="118.5"/><text fill="#000000" font-family="Helvetica" font-size="14" lengthAdjust="spacing" textLength="108" x="2109.5" y="138.4951">auto/dev-loop-*</text><text fill="#000000" font-family="Helvetica" font-size="14" lengthAdjust="spacing" textLength="113" x="2109.5" y="154.792">review branches</text></g><!--entity Clients--><g id="elem_Clients"><ellipse cx="427" cy="839" fill="#F1F1F1" rx="8" ry="8" style="stroke:#181818;stroke-width:0.5;"/><path d="M427,847 L427,874 M414,855 L440,855 M427,874 L414,889 M427,874 L440,889 " fill="none" style="stroke:#181818;stroke-width:0.5;"/><text fill="#000000" font-family="Helvetica" font-size="14" lengthAdjust="spacing" textLength="131" x="361.5" y="903.4951">OpenAI-compatible</text><text fill="#000000" font-family="Helvetica" font-size="14" lengthAdjust="spacing" textLength="45" x="361.5" y="919.792">clients</text></g><!--entity OperatorState--><g id="elem_OperatorState"><path d="M1680.5,639 C1680.5,629 1761.5,629 1761.5,629 C1761.5,629 1842.5,629 1842.5,639 L1842.5,696.8906 C1842.5,706.8906 1761.5,706.8906 1761.5,706.8906 C1761.5,706.8906 1680.5,706.8906 1680.5,696.8906 L1680.5,639 " fill="#E6F3FF" style="stroke:#444444;stroke-width:0.5;"/><path d="M1680.5,639 C1680.5,649 1761.5,649 1761.5,649 C1761.5,649 1842.5,649 1842.5,639 " fill="none" style="stroke:#444444;stroke-width:0.5;"/><text fill="#000000" font-family="Helvetica" font-size="14" lengthAdjust="spacing" textLength="142" x="1690.5" y="665.9951">operator_state.sqlite</text><text fill="#000000" font-family="Helvetica" font-size="14" lengthAdjust="spacing" textLength="105" x="1690.5" y="682.292">mode, denylist,</text><text fill="#000000" font-family="Helvetica" font-size="14" lengthAdjust="spacing" textLength="92" x="1690.5" y="698.5889">probe results</text></g><!--entity UsageLog--><g id="elem_UsageLog"><path d="M1246.5,716 C1246.5,706 1323.5,706 1323.5,706 C1323.5,706 1400.5,706 1400.5,716 L1400.5,773.8906 C1400.5,783.8906 1323.5,783.8906 1323.5,783.8906 C1323.5,783.8906 1246.5,783.8906 1246.5,773.8906 L1246.5,716 " fill="#E6F3FF" style="stroke:#444444;stroke-width:0.5;"/><path d="M1246.5,716 C1246.5,726 1323.5,726 1323.5,726 C1323.5,726 1400.5,726 1400.5,716 " fill="none" style="stroke:#444444;stroke-width:0.5;"/><text fill="#000000" font-family="Helvetica" font-size="14" lengthAdjust="spacing" textLength="103" x="1256.5" y="742.9951">requests.sqlite</text><text fill="#000000" font-family="Helvetica" font-size="14" lengthAdjust="spacing" textLength="84" x="1256.5" y="759.292">usage log +</text><text fill="#000000" font-family="Helvetica" font-size="14" lengthAdjust="spacing" textLength="134" x="1256.5" y="775.5889">failure observations</text></g><!--entity Profiles--><g id="elem_Profiles"><path d="M1649.5,284.5 L1690.5,284.5 A3.75,3.75 0 0 1 1693,287 L1700,305.5 L1873.5,305.5 A2.5,2.5 0 0 1 1876,308 L1876,352.5938 A2.5,2.5 0 0 1 1873.5,355.0938 L1649.5,355.0938 A2.5,2.5 0 0 1 1647,352.5938 L1647,287 A2.5,2.5 0 0 1 1649.5,284.5 " fill="#EEF7E6" style="stroke:#444444;stroke-width:0.5;"/><line style="stroke:#444444;stroke-width:0.5;" x1="1647" x2="1700" y1="305.5" y2="305.5"/><text fill="#000000" font-family="Helvetica" font-size="14" lengthAdjust="spacing" textLength="199" x="1657" y="325.4951">logs/capability_profiles/*.json</text><text fill="#000000" font-family="Helvetica" font-size="14" lengthAdjust="spacing" textLength="155" x="1657" y="341.792">model research inputs</text></g><!--entity Autonomy--><g id="elem_Autonomy"><path d="M1258.5,211 C1258.5,201 1323.5,201 1323.5,201 C1323.5,201 1388.5,201 1388.5,211 L1388.5,252.5938 C1388.5,262.5938 1323.5,262.5938 1323.5,262.5938 C1323.5,262.5938 1258.5,262.5938 1258.5,252.5938 L1258.5,211 " fill="#E6F3FF" style="stroke:#444444;stroke-width:0.5;"/><path d="M1258.5,211 C1258.5,221 1323.5,221 1323.5,221 C1323.5,221 1388.5,221 1388.5,211 " fill="none" style="stroke:#444444;stroke-width:0.5;"/><text fill="#000000" font-family="Helvetica" font-size="14" lengthAdjust="spacing" textLength="110" x="1268.5" y="237.9951">autonomy.sqlite</text><text fill="#000000" font-family="Helvetica" font-size="14" lengthAdjust="spacing" textLength="110" x="1268.5" y="254.292">level + audit log</text></g><g id="elem_GMN48"><path d="M1209,6 L1209,46.2656 A0,0 0 0 0 1209,46.2656 L1319.5,46.2656 L1323.5,107.42 L1327.5,46.2656 L1438,46.2656 A0,0 0 0 0 1438,46.2656 L1438,16 L1428,6 L1209,6 A0,0 0 0 0 1209,6 " fill="#FEFFDD" style="stroke:#181818;stroke-width:0.5;"/><path d="M1428,6 L1428,16 L1438,16 L1428,6 " fill="#FEFFDD" style="stroke:#181818;stroke-width:0.5;"/><text fill="#000000" font-family="Helvetica" font-size="13" lengthAdjust="spacing" textLength="201" x="1215" y="23.0669">The agent cannot push, merge,</text><text fill="#000000" font-family="Helvetica" font-size="13" lengthAdjust="spacing" textLength="208" x="1215" y="38.1997">or edit router/backends/harness.</text></g><g id="elem_GMN51"><path d="M2329,113 L2329,129 L2242.63,133 L2329,137 L2329,153.2656 A0,0 0 0 0 2329,153.2656 L2539,153.2656 A0,0 0 0 0 2539,153.2656 L2539,123 L2529,113 L2329,113 A0,0 0 0 0 2329,113 " fill="#FEFFDD" style="stroke:#181818;stroke-width:0.5;"/><path d="M2529,113 L2529,123 L2539,123 L2529,113 " fill="#FEFFDD" style="stroke:#181818;stroke-width:0.5;"/><text fill="#000000" font-family="Helvetica" font-size="13" lengthAdjust="spacing" textLength="189" x="2335" y="130.0669">Operator reviews and merges</text><text fill="#000000" font-family="Helvetica" font-size="13" lengthAdjust="spacing" textLength="62" x="2335" y="145.1997">manually.</text></g><!--link Clients to API--><g id="link_Clients_API"><path d="M455.94,830.5 C500.89,759.09 595.58,621.92 707,538 C717.09,530.4 728.45,523.65 740.07,517.74 " fill="none" id="Clients-to-API" style="stroke:#444444;stroke-width:1.0;"/><polygon fill="#444444" points="744.71,515.43,734.8707,515.8646,740.235,517.6603,738.4393,523.0246,744.71,515.43" style="stroke:#444444;stroke-width:1.0;"/><text fill="#000000" font-family="Helvetica" font-size="13" lengthAdjust="spacing" textLength="116" x="560" y="565.0669">HTTP on 127.0.0.1</text></g><!--link API to OperatorState--><g id="link_API_OperatorState"><path d="M911.25,496.82 C985.34,509.41 1095.03,535.32 1178,586 C1194.64,596.16 1190.48,609.45 1208,618 C1359.45,691.9 1561.98,688.14 1675.01,678.35 " fill="none" id="API-to-OperatorState" style="stroke:#444444;stroke-width:1.0;"/><polygon fill="#444444" points="1680.32,677.88,1671.0105,674.6655,1675.3384,678.3082,1671.6956,682.6361,1680.32,677.88" style="stroke:#444444;stroke-width:1.0;"/><text fill="#000000" font-family="Helvetica" font-size="13" lengthAdjust="spacing" textLength="119" x="1264" y="599.0669">read routing mode</text><text fill="#000000" font-family="Helvetica" font-size="13" lengthAdjust="spacing" textLength="77" x="1285" y="614.1997">and denylist</text></g><!--link API to Router--><g id="link_API_Router"><path d="M911.05,479.35 C995.51,472.5 1127.36,461.82 1218.95,454.39 " fill="none" id="API-to-Router" style="stroke:#444444;stroke-width:1.0;"/><polygon fill="#444444" points="1224.1,453.98,1214.8082,450.7147,1219.1161,454.381,1215.4498,458.6889,1224.1,453.98" style="stroke:#444444;stroke-width:1.0;"/><text fill="#000000" font-family="Helvetica" font-size="13" lengthAdjust="spacing" textLength="87" x="1035" y="454.0669">route request</text></g><!--link Router to Transforms--><g id="link_Router_Transforms"><path d="M1422.67,446.51 C1479.45,446.68 1552.26,446.68 1617,446 C1631.09,445.85 1645.96,445.62 1660.58,445.36 " fill="none" id="Router-to-Transforms" style="stroke:#444444;stroke-width:1.0;"/><polygon fill="#444444" points="1665.95,445.26,1656.8828,441.4149,1660.9507,445.3457,1657.0199,449.4137,1665.95,445.26" style="stroke:#444444;stroke-width:1.0;"/><text fill="#000000" font-family="Helvetica" font-size="13" lengthAdjust="spacing" textLength="92" x="1497" y="427.0669">apply selected</text><text fill="#000000" font-family="Helvetica" font-size="13" lengthAdjust="spacing" textLength="95" x="1495.5" y="442.1997">cell transforms</text></g><!--link Router to Dispatch--><g id="link_Router_Dispatch"><path d="M1422.62,467.15 C1501.71,484.2 1611.34,507.84 1684.02,523.51 " fill="none" id="Router-to-Dispatch" style="stroke:#444444;stroke-width:1.0;"/><polygon fill="#444444" points="1689.19,524.63,1681.2395,518.8171,1684.3031,523.5726,1679.5476,526.6362,1689.19,524.63" style="stroke:#444444;stroke-width:1.0;"/><text fill="#000000" font-family="Helvetica" font-size="13" lengthAdjust="spacing" textLength="71" x="1507.5" y="476.0669">chosen cell</text></g><!--link Dispatch to Codex--><g id="link_Dispatch_Codex"><path d="M1833.95,555.43 C1906.84,571.17 2019.53,595.51 2094.02,611.59 " fill="none" id="Dispatch-to-Codex" style="stroke:#444444;stroke-width:1.0;"/><polygon fill="#444444" points="2099.32,612.74,2091.3695,606.9271,2094.4331,611.6826,2089.6776,614.7462,2099.32,612.74" style="stroke:#444444;stroke-width:1.0;"/></g><!--link Dispatch to Local--><g id="link_Dispatch_Local"><path d="M1833.95,524.57 C1903.05,509.65 2007.92,487 2082.11,470.98 " fill="none" id="Dispatch-to-Local" style="stroke:#444444;stroke-width:1.0;"/><polygon fill="#444444" points="2087.39,469.84,2077.7545,467.8011,2082.4995,470.8808,2079.4198,475.6259,2087.39,469.84" style="stroke:#444444;stroke-width:1.0;"/></g><!--link Dispatch to LiteLLM--><g id="link_Dispatch_LiteLLM"><path d="M1833.95,540 C1899.59,540 1997.52,540 2070.76,540 " fill="none" id="Dispatch-to-LiteLLM" style="stroke:#444444;stroke-width:1.0;"/><polygon fill="#444444" points="2075.99,540,2066.99,536,2070.99,540,2066.99,544,2075.99,540" style="stroke:#444444;stroke-width:1.0;"/></g><!--link API to UsageLog--><g id="link_API_UsageLog"><path d="M911.03,510.71 C925.04,517.78 938.45,526.73 949,538 C976.09,566.94 948.77,596.36 979,622 C1047.55,680.13 1095.04,623.43 1178,658 C1193.02,664.26 1194.27,670.26 1208,679 C1220.7,687.08 1234.4,695.35 1247.77,703.19 " fill="none" id="API-to-UsageLog" style="stroke:#444444;stroke-width:1.0;"/><polygon fill="#444444" points="1252.28,705.83,1246.5264,697.8365,1247.9627,703.308,1242.4912,704.7443,1252.28,705.83" style="stroke:#444444;stroke-width:1.0;"/><text fill="#000000" font-family="Helvetica" font-size="13" lengthAdjust="spacing" textLength="98" x="1029.5" y="603.0669">record request,</text><text fill="#000000" font-family="Helvetica" font-size="13" lengthAdjust="spacing" textLength="91" x="1033" y="618.1997">status, tokens</text></g><!--link Harness to Dispatch--><g id="link_Harness_Dispatch"><path d="M1396.37,552.73 C1419.5,555.71 1445.28,558.53 1469,560 C1534.65,564.07 1551.38,564.55 1617,560 C1638.84,558.49 1662.41,555.69 1684.02,552.66 " fill="none" id="Harness-to-Dispatch" style="stroke:#444444;stroke-width:1.0;"/><polygon fill="#444444" points="1689.17,551.93,1679.698,549.2315,1684.2194,552.6311,1680.8198,557.1525,1689.17,551.93" style="stroke:#444444;stroke-width:1.0;"/><text fill="#000000" font-family="Helvetica" font-size="13" lengthAdjust="spacing" textLength="109" x="1488.5" y="556.0669">direct cell probes</text></g><!--link Harness to OperatorState--><g id="link_Harness_OperatorState"><path d="M1396.31,566.14 C1419.44,573.7 1445.23,581.92 1469,589 C1538.16,609.61 1617.21,630.89 1675.53,646.17 " fill="none" id="Harness-to-OperatorState" style="stroke:#444444;stroke-width:1.0;"/><polygon fill="#444444" points="1680.4,647.44,1672.7107,641.2857,1675.5639,646.1703,1670.6793,649.0235,1680.4,647.44" style="stroke:#444444;stroke-width:1.0;"/><text fill="#000000" font-family="Helvetica" font-size="13" lengthAdjust="spacing" textLength="146" x="1470" y="585.0669">read/write probe cache</text></g><!--link Harness to Profiles--><g id="link_Harness_Profiles"><path d="M1396.29,525.37 C1411.96,518.95 1427.33,510.12 1439,498 C1467.65,468.23 1438.5,437.88 1469,410 C1518.97,364.33 1552.31,393.96 1617,374 C1633.02,369.06 1649.84,363.28 1666.11,357.37 " fill="none" id="Harness-to-Profiles" style="stroke:#444444;stroke-width:1.0;"/><polygon fill="#444444" points="1671.13,355.54,1661.3042,354.8661,1666.4327,357.2533,1664.0455,362.3818,1671.13,355.54" style="stroke:#444444;stroke-width:1.0;"/><text fill="#000000" font-family="Helvetica" font-size="13" lengthAdjust="spacing" textLength="83" x="1501.5" y="355.0669">write findings</text><text fill="#000000" font-family="Helvetica" font-size="13" lengthAdjust="spacing" textLength="113" x="1486.5" y="370.1997">and adapter hints</text></g><!--link Canary to UsageLog--><g id="link_Canary_UsageLog"><path d="M845.41,592.2 C871.02,619.33 923.36,669.75 979,694 C1002.58,704.28 1147.44,723.53 1241.35,735.21 " fill="none" id="Canary-to-UsageLog" style="stroke:#444444;stroke-width:1.0;"/><polygon fill="#444444" points="1246.34,735.83,1237.9002,730.7536,1241.378,735.2151,1236.9164,738.6928,1246.34,735.83" style="stroke:#444444;stroke-width:1.0;"/><text fill="#000000" font-family="Helvetica" font-size="13" lengthAdjust="spacing" textLength="125" x="1016" y="675.0669">failure observations</text><text fill="#000000" font-family="Helvetica" font-size="13" lengthAdjust="spacing" textLength="101" x="1028" y="690.1997">and mode stats</text></g><!--link Timer to Perception--><g id="link_Timer_Perception"><path d="M208.1,134 C243.1,134 283.3,134 319.57,134 " fill="none" id="Timer-to-Perception" style="stroke:#444444;stroke-width:1.0;"/><polygon fill="#444444" points="324.89,134,315.89,130,319.89,134,315.89,138,324.89,134" style="stroke:#444444;stroke-width:1.0;"/><text fill="#000000" font-family="Helvetica" font-size="13" lengthAdjust="spacing" textLength="55" x="239" y="130.0669">every 6h</text></g><!--link Perception to Profiles--><g id="link_Perception_Profiles"><path d="M529.01,156.69 C677.15,189.09 962.41,248.23 1208,280 C1356.81,299.25 1529.46,309.89 1641.61,315.27 " fill="none" id="Perception-to-Profiles" style="stroke:#444444;stroke-width:1.0;"/><polygon fill="#444444" points="1646.9,315.52,1638.0926,311.112,1641.9052,315.291,1637.7263,319.1036,1646.9,315.52" style="stroke:#444444;stroke-width:1.0;"/><text fill="#000000" font-family="Helvetica" font-size="13" lengthAdjust="spacing" textLength="29" x="1064" y="243.0669">read</text></g><!--link Perception to UsageLog--><g id="link_Perception_UsageLog"><path d="M438.4,168.51 C466.75,257.01 553.74,494.22 707,625 C859.85,755.43 1112.23,760.16 1241.18,752.65 " fill="none" id="Perception-to-UsageLog" style="stroke:#444444;stroke-width:1.0;"/><polygon fill="#444444" points="1246.47,752.33,1237.246,748.8778,1241.479,752.6303,1237.7265,756.8633,1246.47,752.33" style="stroke:#444444;stroke-width:1.0;"/><text fill="#000000" font-family="Helvetica" font-size="13" lengthAdjust="spacing" textLength="96" x="780" y="621.0669">read-only stats</text></g><!--link Perception to Transforms--><g id="link_Perception_Transforms"><path d="M429.93,168.67 C438.35,281.11 482.48,634.53 707,741 C1001.98,880.88 1134.9,920.74 1439,802 C1539.2,762.88 1563.24,731.18 1617,638 C1647.5,585.14 1610.12,552.62 1647,504 C1656.8,491.08 1670.15,480.58 1684.26,472.18 " fill="none" id="Perception-to-Transforms" style="stroke:#444444;stroke-width:1.0;"/><polygon fill="#444444" points="1688.66,469.63,1678.8659,470.6674,1684.3303,472.1307,1682.867,477.595,1688.66,469.63" style="stroke:#444444;stroke-width:1.0;"/><text fill="#000000" font-family="Helvetica" font-size="13" lengthAdjust="spacing" textLength="168" x="994.5" y="846.0669">recent transform commits</text></g><!--link Perception to Gate--><g id="link_Perception_Gate"><path d="M529.2,134 C581.64,134 646.17,134 701.73,134 " fill="none" id="Perception-to-Gate" style="stroke:#444444;stroke-width:1.0;"/><polygon fill="#444444" points="706.74,134,697.74,130,701.74,134,697.74,138,706.74,134" style="stroke:#444444;stroke-width:1.0;"/></g><!--link Gate to Autonomy--><g id="link_Gate_Autonomy"><path d="M949.09,157.85 C1044.43,176.78 1174.38,202.59 1253.15,218.23 " fill="none" id="Gate-to-Autonomy" style="stroke:#444444;stroke-width:1.0;"/><polygon fill="#444444" points="1258.27,219.24,1250.2165,213.5706,1253.3649,218.2704,1248.6652,221.4188,1258.27,219.24" style="stroke:#444444;stroke-width:1.0;"/><text fill="#000000" font-family="Helvetica" font-size="13" lengthAdjust="spacing" textLength="197" x="980" y="162.0669">record skips/failures/successes</text></g><!--link Gate to Agent--><g id="link_Gate_Agent"><path d="M949.09,134 C1026.15,134 1125.81,134 1202.79,134 " fill="none" id="Gate-to-Agent" style="stroke:#444444;stroke-width:1.0;"/><polygon fill="#444444" points="1207.82,134,1198.82,130,1202.82,134,1198.82,138,1207.82,134" style="stroke:#444444;stroke-width:1.0;"/><text fill="#000000" font-family="Helvetica" font-size="13" lengthAdjust="spacing" textLength="108" x="1024.5" y="115.0669">invoke only when</text><text fill="#000000" font-family="Helvetica" font-size="13" lengthAdjust="spacing" textLength="148" x="1004.5" y="130.1997">actionable signal exists</text></g><!--link Agent to Transforms--><g id="link_Agent_Transforms"><path d="M1395.8,160.59 C1410.5,167.14 1425.58,174.7 1439,183 C1527.23,237.57 1545.42,258.91 1617,334 C1632.09,349.83 1630.76,358.35 1647,373 C1664.18,388.5 1685.25,402.56 1704.54,413.95 " fill="none" id="Agent-to-Transforms" style="stroke:#444444;stroke-width:1.0;"/><polygon fill="#444444" points="1708.89,416.49,1703.1282,408.5024,1704.5701,413.9724,1699.1001,415.4143,1708.89,416.49" style="stroke:#444444;stroke-width:1.0;"/><text fill="#000000" font-family="Helvetica" font-size="13" lengthAdjust="spacing" textLength="82" x="1502" y="201.0669">allowed edits</text></g><!--link Agent to Verify--><g id="link_Agent_Verify"><path d="M1439.05,134 C1516.02,134 1615.38,134 1683.13,134 " fill="none" id="Agent-to-Verify" style="stroke:#444444;stroke-width:1.0;"/><polygon fill="#444444" points="1688.36,134,1679.36,130,1683.36,134,1679.36,138,1688.36,134" style="stroke:#444444;stroke-width:1.0;"/></g><!--link Verify to Branches--><g id="link_Verify_Branches"><path d="M1834.88,133.82 C1907.81,133.64 2019.87,133.37 2094.04,133.19 " fill="none" id="Verify-to-Branches" style="stroke:#444444;stroke-width:1.0;"/><polygon fill="#444444" points="2099.31,133.17,2090.2986,129.1957,2094.31,133.1843,2090.3215,137.1957,2099.31,133.17" style="stroke:#444444;stroke-width:1.0;"/><text fill="#000000" font-family="Helvetica" font-size="13" lengthAdjust="spacing" textLength="90" x="1930" y="115.0669">commit only if</text><text fill="#000000" font-family="Helvetica" font-size="13" lengthAdjust="spacing" textLength="136" x="1907" y="130.1997">scope and tests pass</text></g><!--SRC=[XLRTRjis5BxNKnnu5mMQE5gsBWLwCI1rdAQ0snXBsgi00IqTMLmfKYKfEy8mO0-n9zoJx1nIaYMdwrgWjSZlV3o_7_a25a8fuveARAEzh12ygOqosnR- -UjlgAt9qBcqCdcZ47OIzr2hne4l4HogOcus3krEU6bqyWA4pY77tLmPKqCjV4b0uI4Jcgdo9YD-AxGhZAtcHgiMB0RI3Qrc9Rgp975VfAw55HLiHFPbQqsZymMvPE67w_1dXCYn48torqRxZuASdzsWsg6NcPYDKAuKkTbBlOL2A8UZdSnKjT6e_PrlAJwBcHTwgyQGcfmGM_nlmAMrPjyv-2hy6Mqk-WFU6fkZ_N_Oyv2Nhzx-Ce9U2Iysmk7t2GVKCT_oulhdIGglZIAUxxDrc6TSo-lNouiaKLXuwXkmSbjwo2LdYViX4PadtEosHdtvVix9faRPA7pGcP8KhPk1SB28lvEaIpNCihufhuNpb-ltVHy6-DgQfnR-IE1GFPWno3Ms41cHfxlprAAZFOSkVcRKXYdZ5R9haOcCfYo_cSQZVT052jyG0yn_fTwjnKOgwLief0hRj5fRp6M8ZZve491_1zB8CUMzxtkU6cWhdRVjWtOsI_iuqs4eN1f81WCt9U8I8C-OT9JAh0pWg-vZ2bqS_2w5rPIz1trHWjiZrZ7ycxXyRAQ5RU64HaKgoi7WSInLs4t-7DMgSobIzX_7vLcO79z0D2G8EnvOyiLYPJp2cjGafP96UePDBLU6ahHIrKspwSWVD2M_G4iL0CMxe0J54GW2-eX0UbojFhmJ7lUY7JX82HJhIqUnZTkH95fmb7atHZ0pDLf1DNvqdg1dxYjbbbgDX15FIOPqgoXBf-oRsN3I74SPw6uxopis735Q_DgWysxWQXmdbBGNJjY_cFwHlaQwJunQcMrIXA646HcuzD2bZ-G1DIgwzENPxyxewADYbr3Oh0GQwiOFenIW8w-eHaQRgXsyKhWZwnCgNYuzUnT7fuED6i6HVlCjaNETpPok0U1hO81VqS9HMxZMUQnou8k7vgeVXtb_XPo5ZJWH_6jglKQROSsP0QT5xKhZG_v3IEHnTjJAr7GdX-k7cIhP9sAWEZh2uZnEVUYG1oroKVDNAMaxxO_8vGxj5dKG7xuasFXmKdz-E8eRSNh8yeaODJLXPdA-f2YRcY9PNAvMjtUVFZnUBJy_hcvlru-NxvOVxsC-6J9bkSkeHIbOJptLENjG5U2xbcQkAGg2r2s30j5djB9eYQdl9gvTskT__fBdT791np7lFdX4ElM6EGaXg_0RkBc_NzE1SFxJwxCVwUzvmkkyFna5GbeKET2DuZbiRbDAS7X1n74QxAAciW7_W6voacwP4GV199IeQtfPH5L6clKCbJgKmutjUkqagwmq3ZKmE1cM6HDLQR8KTMQwrAb6xtC_fo7CZAxNtcqI2TQGnftIdKbYH1TVfyJ77iMRD7W4GLVS1FcjRAPxItv4D7Kd5MbYqWyyeIEma9fxpiN4ZxlR9TrLS1JCjuGfMdC1WKEZYCAunYCFK_e6I4k8yQ9CHgj7Vd4KnzkJN8eylXpZIKV8IHyy6yHkv8-DmaZoFx69Esax58uUGhLB-obENPFnOuIgSR3XUIG3gNTKqZ1ji2-Hn5U4fv2WHmyukUKfnoTgRPT4a-UzInAu9msbvyK4r0rg_2-iz4F8hHlYYiVAWlehQ07NX0VTqHkMhlb4ytsxCTwR2amnQCWzFUM3vB2Q4GRgnfMdKB6YdT8-lN7OcJXxDjrqLtpQlIhE4dwGC7TtGdm5qW63Ii3GgjrptmNVmWcyMmdTKDpjYEfV]--></g></svg>